# xmcd
#
# Track frame offsets:
#	150
#	17770
#	32994
#	51427
#	69136
#	88290
#	103025
#	124898
#	141916
#	157328
#	172258
#	189248
#	208146
#	228266
#	245931
#	263896
#
# Disc length: 3615 seconds
#
# Revision: 0
# Processed by: cddbd v1.5.2PL0 Copyright (c) Steve Scherf et al.
# Submitted via: EasyCDDAExtractor 11.0.2.1
#
DISCID=f60e1d10
DTITLE=Rocio Jurado - Volcan De Amor Y Fuego - CD 2
DYEAR=2006
DGENRE=Latin
TTITLE0=Paloma Brava
TTITLE1=Rocio De Luna Blanca
TTITLE2=Mi Unica Prision
TTITLE3=Pastora Imperio
TTITLE4=Por El
TTITLE5=Dame Una Noche
TTITLE6=Mas Sola Que La Una
TTITLE7=La Taberna Del Puerto
TTITLE8=Distante
TTITLE9=Maniqui
TTITLE10=Como Siempre Que No Estas
TTITLE11=Amor De Noche
TTITLE12=Esta Noche Gano Yo
TTITLE13=Mi Bruto Bello
TTITLE14=La Clavela
TTITLE15=Cancion De Fuego Fatuo
EXTD=
EXTT0=
EXTT1=
EXTT2=
EXTT3=
EXTT4=
EXTT5=
EXTT6=
EXTT7=
EXTT8=
EXTT9=
EXTT10=
EXTT11=
EXTT12=
EXTT13=
EXTT14=
EXTT15=
PLAYORDER=
